<?xml version="1.0" encoding="utf-8"?>
<!-- Generator: Adobe Illustrator 24.0.1, SVG Export Plug-In . SVG Version: 6.00 Build 0)  -->
<svg version="1.1" id="Layer_1" xmlns="http://www.w3.org/2000/svg" xmlns:xlink="http://www.w3.org/1999/xlink" x="0px" y="0px"
	 viewBox="0 0 99.2126 99.2126" style="enable-background:new 0 0 99.2126 99.2126;" xml:space="preserve">
<style type="text/css">
	.st0{fill:#FFFFFF;}
</style>
<g>
	<g>
		<g>
			<path class="st0" d="M9.48532,50.62246c-3.92542,5.50525-1.76318,14.59772,4.1922,16.83796
				c6.61584,2.4884,12.30377,0.11298,19.3374,4.96344c8.7381,6.02594,14.0708,21.68616,14.0708,21.68616
				S44.4263,65.54776,29.47214,51.08987C22.99143,44.82467,14.64273,43.38992,9.48532,50.62246z"/>
			<path class="st0" d="M9.48532,50.62246c-3.92542,5.50525-1.76318,14.59772,4.1922,16.83796
				c6.61584,2.4884,12.30377,0.11298,19.3374,4.96344c8.7381,6.02594,14.0708,21.68616,14.0708,21.68616
				S44.4263,65.54776,29.47214,51.08987C22.99143,44.82467,14.64273,43.38992,9.48532,50.62246z"/>
		</g>
		<g>
			<path class="st0" d="M89.98776,50.62246c-5.15747-7.23254-13.50616-5.79779-19.98694,0.46741
				C55.04648,65.54776,52.3873,94.11002,52.3873,94.11002s5.3327-15.66022,14.07086-21.68616
				c7.03339-4.85046,12.72137-2.47504,19.33734-4.96344C91.75101,65.22018,93.91324,56.12771,89.98776,50.62246z"/>
			<path class="st0" d="M89.98776,50.62246c-5.15747-7.23254-13.50616-5.79779-19.98694,0.46741
				C55.04648,65.54776,52.3873,94.11002,52.3873,94.11002s5.3327-15.66022,14.07086-21.68616
				c7.03339-4.85046,12.72137-2.47504,19.33734-4.96344C91.75101,65.22018,93.91324,56.12771,89.98776,50.62246z"/>
		</g>
		<g>
			<path class="st0" d="M68.71469,26.11502c0-11.37433-7.6986-20.59528-19.07293-20.59528
				c-11.37506,0-19.07361,9.22095-19.07361,20.59528c0,7.85534,4.19214,14.92468,8.79376,23.7193
				c5.59802,10.69879,10.27985,23.95081,10.27985,44.2757c0-20.15485,4.53174-33.57611,10.07477-44.27875
				C64.39774,40.79293,68.71469,33.6932,68.71469,26.11502z"/>
			<path class="st0" d="M68.71469,26.11502c0-11.37433-7.6986-20.59528-19.07293-20.59528
				c-11.37506,0-19.07361,9.22095-19.07361,20.59528c0,7.85534,4.19214,14.92468,8.79376,23.7193
				c5.59802,10.69879,10.27985,23.95081,10.27985,44.2757c0-20.15485,4.53174-33.57611,10.07477-44.27875
				C64.39774,40.79293,68.71469,33.6932,68.71469,26.11502z"/>
		</g>
	</g>
	<path d="M49.60676,0.09638c-27.39624,0-49.60626,22.20996-49.60626,49.6062c0,27.3971,22.21002,49.60645,49.60626,49.60645
		c27.39709,0,49.60651-22.20935,49.60651-49.60645C99.21326,22.30634,77.00385,0.09638,49.60676,0.09638z M33.01496,72.4239
		c-7.03369-4.85052-12.72156-2.47504-19.33746-4.96344c-5.95538-2.2403-8.11761-11.33277-4.19214-16.83796
		c5.15735-7.2326,13.50604-5.79779,19.98682,0.46735C44.42634,65.5478,47.08576,94.11005,47.08576,94.11005
		S41.753,78.44978,33.01496,72.4239z M39.36195,49.83429c-4.60162-8.79462-8.79382-15.86389-8.79382-23.71924
		c0-11.37433,7.69855-20.59528,19.07367-20.59528c11.37433,0,19.07288,9.22095,19.07288,20.59528
		c0,7.57818-4.31696,14.67785-8.99811,23.71618c-5.54303,10.70264-10.07477,24.12397-10.07477,44.27881
		C49.64179,73.7851,44.95991,60.53315,39.36195,49.83429z M85.79548,67.46046c-6.61597,2.4884-12.30396,0.11292-19.33728,4.96344
		c-8.73816,6.02588-14.07092,21.68616-14.07092,21.68616s2.65924-28.56226,17.61359-43.02021
		c6.48071-6.26514,14.82941-7.69995,19.98694-0.46735C93.91322,56.12769,91.75098,65.22016,85.79548,67.46046z"/>
</g>
</svg>
